HIERARCHY
ROOT Hips
{
	OFFSET -3.958830 18.904000 13.208200
	CHANNELS 6 Xposition Yposition Zposition Zrotation Yrotation Xrotation 
	JOINT LHipJoint
	{
		OFFSET 0.000000 0.000000 0.000000
		CHANNELS 3 Zrotation Yrotation Xrotation
		JOINT LeftUpLeg
		{
			OFFSET 1.800000 -1.400000 0.085000
			CHANNELS 3 Zrotation Yrotation Xrotation
			JOINT LeftLeg
			{
				OFFSET 2.215000 -6.000000 0.000000
				CHANNELS 3 Zrotation Yrotation Xrotation
				JOINT LeftFoot
				{
					OFFSET 2.500000 -6.900000 0.000000
					CHANNELS 3 Zrotation Yrotation Xrotation
					JOINT LeftToeBase
					{
						OFFSET 0.200000 -0.500000 1.950000
						CHANNELS 3 Zrotation Yrotation Xrotation
						End Site
						{
							OFFSET 0.000000 0.000000 0.000000
						}
					}
				}
			}
		}
	}
	JOINT RHipJoint
	{
		OFFSET 0.000000 0.000000 0.000000
		CHANNELS 3 Zrotation Yrotation Xrotation
		JOINT RightUpLeg
		{
			OFFSET -1.800000 -1.400000 0.085000
			CHANNELS 3 Zrotation Yrotation Xrotation
			JOINT RightLeg
			{
				OFFSET -2.215000 -6.000000 0.000000
				CHANNELS 3 Zrotation Yrotation Xrotation
				JOINT RightFoot
				{
					OFFSET -2.500000 -6.900000 0.000000
					CHANNELS 3 Zrotation Yrotation Xrotation
					JOINT RightToeBase
					{
						OFFSET -0.200000 -0.500000 1.950000
						CHANNELS 3 Zrotation Yrotation Xrotation
						End Site
						{
							OFFSET 0.000000 0.000000 0.000000
						}
					}
				}
			}
		}
	}
	JOINT LowerBack
	{
		OFFSET 0.000000 0.000000 0.000000
		CHANNELS 3 Zrotation Yrotation Xrotation
		JOINT Spine
		{
			OFFSET -0.087000 1.940000 -0.288900
			CHANNELS 3 Zrotation Yrotation Xrotation
			JOINT Spine1
			{
				OFFSET 0.000000 1.950000 0.060000
				CHANNELS 3 Zrotation Yrotation Xrotation
				JOINT Neck
				{
					OFFSET 0.000000 0.000000 0.000000
					CHANNELS 3 Zrotation Yrotation Xrotation
					JOINT Neck1
					{
						OFFSET 0.000000 1.600000 0.340000
						CHANNELS 3 Zrotation Yrotation Xrotation
						JOINT Head
						{
							OFFSET 0.000000 1.667000 -0.240000
							CHANNELS 3 Zrotation Yrotation Xrotation
							End Site
							{
								OFFSET 0.000000 0.000000 0.000000
							}
						}
					}
				}
				JOINT LeftShoulder
				{
					OFFSET 0.000000 0.000000 0.000000
					CHANNELS 3 Zrotation Yrotation Xrotation
					JOINT LeftArm
					{
						OFFSET 2.700000 1.550000 -0.730000
						CHANNELS 3 Zrotation Yrotation Xrotation
						JOINT LeftForeArm
						{
							OFFSET 5.450000 0.000000 0.000000
							CHANNELS 3 Zrotation Yrotation Xrotation
							JOINT LeftHand
							{
								OFFSET 3.450000 0.000000 0.000000
								CHANNELS 3 Zrotation Yrotation Xrotation
								JOINT LeftHandIndex1
								{
									OFFSET 0.750000 0.000000 0.000000
									CHANNELS 3 Zrotation Yrotation Xrotation
									End Site
									{
										OFFSET 0.000000 0.000000 0.000000
									}
								}
							}
						}
					}
				}
				JOINT RightShoulder
				{
					OFFSET 0.000000 0.000000 0.000000
					CHANNELS 3 Zrotation Yrotation Xrotation
					JOINT RightArm
					{
						OFFSET -2.700000 1.550000 -0.730000
						CHANNELS 3 Zrotation Yrotation Xrotation
						JOINT RightForeArm
						{
							OFFSET -5.450000 0.000000 0.000000
							CHANNELS 3 Zrotation Yrotation Xrotation
							JOINT RightHand
							{
								OFFSET -3.450000 0.000000 0.000000
								CHANNELS 3 Zrotation Yrotation Xrotation
								JOINT RightHandIndex1
								{
									OFFSET -0.750000 0.000000 0.000000
									CHANNELS 3 Zrotation Yrotation Xrotation
									End Site
									{
										OFFSET 0.000000 0.000000 0.000000
									}
								}
							}
						}
					}
				}
			}
		}
	}
}
MOTION
Frames: 11
Frame Time: 0.016667
2.124900 17.552630 -1.834140 -4.009262 -22.813916 5.777033 -15.079674 13.750269 3.373680 -1.354779 -2.273491 -16.397422 -4.293217 4.375161 13.292381 -0.815935 3.580172 3.646311 0.556850 -0.044390 0.487760 18.166361 -10.928521 3.295012 1.829537 -1.047715 0.396251 5.193027 -5.520585 11.262482 -0.780384 -4.070651 3.240045 0.015000 0.279740 0.465100 -3.069651 -2.410364 -8.173675 9.262071 3.731876 15.618706 -3.396024 6.152243 -5.081524 4.103359 -3.387260 -12.059732 -9.688913 6.062235 43.530819 -7.043890 5.861140 -14.652300 -18.566691 -5.734485 2.363033 -2.118832 3.258294 0.049848 14.993910 -0.149442 -0.890199 -4.009408 2.479430 1.017730 0.125520 0.192470 0.387110 10.999521 11.386537 8.268807 7.943896 -0.306701 -4.852601 -25.301079 10.655937 -1.549793 2.012082 -1.334720 -0.316530 0.315700 -0.097790 -0.375650 
2.155310 17.538190 -1.848280 -3.782287 -23.039514 5.597870 -15.060611 13.767548 3.350441 -1.135152 -2.315525 -16.604195 -4.113229 4.499479 14.476315 -0.786911 3.639018 3.610501 0.583300 -0.006040 0.492430 18.177058 -10.984030 3.255248 1.343540 -0.917945 0.159818 5.192909 -5.585205 12.043944 -0.780181 -4.111558 3.222262 0.029870 0.269080 0.480090 -3.107464 -2.352171 -8.114685 9.261539 3.523740 15.731237 -3.661054 5.926205 -4.668481 4.088083 -3.434317 -11.854197 -9.575517 6.172269 42.829536 -7.000370 6.027750 -14.525980 -18.308088 -5.492047 2.265831 -2.565628 2.988297 -0.077392 15.954976 -0.355805 -0.887436 -4.007871 2.534168 0.990260 0.131230 0.194390 0.396070 10.692369 11.103753 8.088197 8.266416 0.168407 -4.854773 -25.489873 10.393596 -1.616810 2.019736 -1.377011 -0.286200 0.287510 -0.115640 -0.365490 
2.209020 17.502830 -1.879270 -3.130296 -23.275398 5.485488 -15.057028 13.770272 3.331586 -1.119081 -2.501059 -17.200971 -3.742878 4.687945 16.584711 -0.773136 3.785384 3.555285 0.613730 0.035990 0.494870 18.178665 -11.053808 3.166221 0.464174 -0.719433 -0.399591 4.883473 -5.571816 12.906980 -0.759495 -4.147583 3.206582 0.065590 0.288110 0.495780 -3.112366 -2.272640 -7.999680 8.606574 3.317985 15.820072 -3.730248 5.551852 -4.158467 4.007136 -3.535299 -11.243686 -9.157288 6.208114 40.215816 -7.084950 6.285100 -14.483850 -18.095698 -4.898422 1.886956 -2.587248 2.266107 -0.148835 16.793142 -0.547471 -0.909831 -4.025406 2.591640 0.954680 0.159910 0.178270 0.420830 10.574425 10.427977 7.666597 7.609381 0.821124 -4.624330 -24.879733 10.450436 -1.677089 2.010679 -1.427818 -0.278400 0.274070 -0.138630 -0.353420 
2.259620 17.451220 -1.912170 -2.273096 -23.460293 5.615889 -15.058837 13.720733 3.292668 -0.955573 -2.744771 -18.150763 -3.271634 4.882705 19.051284 -0.744830 3.954372 3.482861 0.669530 0.132680 0.486560 18.189121 -11.124481 3.056399 -0.675098 -0.543271 -1.116456 4.922425 -5.606223 13.449605 -0.752182 -4.199209 3.181046 0.126370 0.309120 0.526230 -3.135455 -2.119140 -7.824691 7.503616 3.214103 15.265287 -3.633791 5.094712 -3.036682 3.697478 -3.560178 -10.453348 -8.447283 6.081208 36.459155 -6.872440 6.332810 -15.283450 -17.675565 -4.408289 1.502049 -2.354776 0.813224 -0.181622 17.011570 0.155408 -0.887510 -4.048424 2.669861 0.903870 0.192060 0.177490 0.466750 10.724666 9.589499 7.139593 7.282757 1.190602 -4.477243 -24.940824 10.585778 -1.855310 1.996627 -1.513354 -0.248180 0.256450 -0.178620 -0.317550 
2.314780 17.412610 -1.939090 -1.633953 -23.685830 5.558292 -15.077090 13.797701 3.283452 -0.513074 -2.941980 -18.801730 -2.577940 5.066622 21.519951 -0.718574 4.222870 3.398192 0.660280 0.128380 0.476400 18.158250 -11.157316 2.966408 -1.727428 -0.363083 -1.635996 4.785547 -5.651181 14.301450 -0.721853 -4.217668 3.187971 0.137560 0.354050 0.522830 -3.051058 -2.221183 -7.756828 6.577184 3.043902 15.395680 -3.221108 4.754795 -3.237868 3.603613 -3.724669 -10.080398 -8.565493 6.184500 35.240721 -6.907630 6.336620 -14.871780 -17.695976 -3.964098 1.123038 -2.496983 -0.186327 -0.207321 17.387020 0.318669 -0.900854 -4.089738 2.647605 0.879380 0.226070 0.153870 0.479150 11.014138 9.142479 6.926428 6.484826 0.777138 -4.410053 -25.164784 11.066958 -1.940354 1.974256 -1.519718 -0.264900 0.287640 -0.175380 -0.308250 
2.372240 17.359900 -1.955140 -1.528492 -24.477519 5.807239 -15.047726 13.851843 3.227731 0.529798 -2.934141 -19.174090 -2.052075 5.249042 23.401478 -0.697244 4.456607 3.303186 0.669160 0.159380 0.454370 18.175879 -11.226633 2.889461 -2.569330 -0.176256 -2.346437 4.595988 -5.680392 15.273318 -0.692919 -4.245537 3.183850 0.168810 0.379390 0.520850 -3.109422 -2.189520 -7.647715 6.830513 2.769461 15.039783 -3.441540 4.459872 -2.980198 3.442040 -4.128987 -9.653233 -9.023097 6.834080 33.770346 -6.662230 6.689480 -14.557600 -17.453149 -3.361257 0.784323 -2.865346 -1.030286 -0.210248 17.751074 0.307842 -0.918171 -4.118391 2.672909 0.841300 0.254810 0.130480 0.493010 11.026491 8.610320 6.559670 5.872545 1.101332 -4.303813 -25.371297 11.179973 -2.032762 1.956327 -1.552102 -0.263440 0.295370 -0.174050 -0.296320 
2.422510 17.308940 -1.967910 -2.140446 -25.705652 6.406265 -14.995250 13.909383 3.118380 2.314329 -2.640079 -19.225663 -1.843132 5.430795 24.335395 -0.662479 4.593883 3.229432 0.747880 0.272530 0.474680 18.219474 -11.299300 2.849900 -2.585779 0.019953 -3.250528 4.146374 -5.611458 16.483017 -0.703001 -4.257378 3.159051 0.228440 0.366800 0.555010 -3.236794 -2.093907 -7.521249 7.992774 2.445499 14.548546 -3.699811 4.187665 -2.916704 3.253927 -4.643346 -8.936198 -9.586227 7.491838 32.072200 -6.389600 6.998370 -15.153580 -17.001370 -2.083879 0.207593 -4.002040 -2.078658 -0.235609 18.595882 0.019443 -0.930053 -4.106041 2.760608 0.802970 0.261930 0.153490 0.531590 10.774545 7.524931 5.838646 5.501032 2.086368 -4.175913 -25.925039 11.927487 -2.292159 1.950549 -1.630623 -0.212510 0.264620 -0.224810 -0.266160 
2.464910 17.253810 -1.977450 -2.989248 -27.129043 7.065019 -14.933395 13.956634 3.013259 4.245799 -2.250075 -18.965422 -1.991925 5.696591 24.619937 -0.668744 4.759591 3.167628 0.744910 0.273520 0.463420 18.272502 -11.372687 2.834712 -2.040455 0.277505 -4.269295 3.282880 -5.459255 18.015861 -0.682461 -4.256602 3.151763 0.243240 0.399040 0.564140 -3.389510 -1.957147 -7.422874 9.384450 2.050753 13.948046 -4.334666 3.883222 -2.837402 3.219923 -4.819731 -8.556111 -9.645087 8.225333 31.319376 -6.341130 7.586320 -14.676390 -16.324019 -1.273248 0.032070 -5.140406 -2.139742 -0.264477 19.780453 -0.884316 -1.019891 -4.132412 2.779323 0.785450 0.291730 0.134460 0.537190 9.977779 6.690637 5.267105 6.445400 3.620261 -4.227268 -26.753731 11.755542 -2.471391 1.940521 -1.658716 -0.222550 0.273740 -0.214050 -0.262970 
2.509490 17.195350 -1.981560 -3.960189 -28.072767 7.693217 -14.874574 14.000101 2.913641 6.020913 -1.901743 -18.491974 -2.004451 5.840722 24.488325 -0.718508 4.884295 3.135031 0.740720 0.249780 0.486240 18.328069 -11.423530 2.827475 -1.231460 0.607987 -5.305934 2.221174 -5.258606 19.967645 -0.661770 -4.273709 3.137063 0.258730 0.427940 0.547100 -3.556666 -1.854948 -7.329878 11.095379 1.629368 13.447324 -4.878646 3.606408 -2.638377 3.096905 -5.065456 -8.172239 -9.942784 8.623338 30.663054 -6.496860 7.831670 -14.405060 -16.248348 -0.826766 -0.205883 -5.296390 -2.415944 -0.266290 20.393229 -1.892315 -1.188691 -4.152355 2.749850 0.793990 0.312770 0.102810 0.524370 9.931038 6.167184 4.850822 6.433851 4.617249 -4.290393 -27.582621 9.775783 -2.342478 1.955207 -1.672763 -0.266970 0.307750 -0.201220 -0.286860 
2.554350 17.141650 -1.983160 -4.975671 -29.088150 8.201255 -14.820675 14.031210 2.835859 7.839815 -1.543708 -17.802288 -2.453002 6.129201 24.290823 -0.707678 4.988458 3.075450 0.786180 0.300430 0.515180 18.378113 -11.446852 2.832765 -0.546019 1.005696 -6.291940 1.601823 -5.162186 22.038907 -0.685563 -4.335353 3.087563 0.286300 0.398500 0.554700 -3.714721 -1.781268 -7.272062 12.825191 1.187559 13.267560 -5.390784 3.338519 -2.736069 2.941430 -5.427921 -7.800733 -10.555183 9.170518 30.478151 -6.168500 8.034030 -14.835730 -15.961506 -0.114721 -0.498402 -5.958529 -2.875222 -0.329580 21.174067 -3.018102 -1.342476 -4.119229 2.798971 0.793080 0.294410 0.118570 0.528630 9.741328 5.509932 4.403432 6.802239 5.359613 -4.373900 -28.638437 9.487264 -2.447187 1.969264 -1.717372 -0.245190 0.287410 -0.223380 -0.287490 
2.607870 17.086100 -1.986150 -5.770355 -29.793041 8.676827 -14.775161 14.045474 2.779439 8.972488 -1.352010 -17.292092 -2.531309 6.215702 24.216065 -0.670445 5.004091 3.037173 0.867890 0.411540 0.529490 18.422752 -11.460606 2.826279 -0.221550 1.543852 -7.651756 1.357786 -5.219850 24.566970 -0.737822 -4.480598 3.004813 0.332100 0.357020 0.596450 -3.863980 -1.720182 -7.207499 14.409728 0.504154 13.228440 -6.167965 2.844856 -2.752559 2.810327 -5.779011 -7.592992 -11.024156 9.915279 29.562311 -5.557370 8.374570 -15.509660 -15.875160 0.232375 -0.564612 -5.802568 -2.942117 -0.263011 20.697697 -2.793329 -1.279949 -4.074261 2.902419 0.775220 0.275210 0.162390 0.568630 9.771990 5.114714 4.098090 6.857435 5.641304 -4.319841 -29.085805 9.959493 -2.621324 1.976545 -1.792505 -0.179890 0.230750 -0.276250 -0.257810 
